<?xml version="1.0" encoding="UTF-8"?><svg version="1.1" xmlns="http://www.w3.org/2000/svg" width="256" height="256"><path d="M0 0 C84.48 0 168.96 0 256 0 C256 84.48 256 168.96 256 256 C171.52 256 87.04 256 0 256 C0 171.52 0 87.04 0 0 Z " fill="#FFFFFF" transform="translate(0,0)"/><path d="M0 0 C3.304 3.071 5.024 6.687 6.977 10.695 C7.347 11.443 7.718 12.191 8.1 12.962 C9.281 15.347 10.453 17.736 11.625 20.125 C12.805 22.521 13.987 24.915 15.171 27.309 C15.907 28.798 16.641 30.288 17.372 31.78 C19.889 36.889 19.889 36.889 21 38 C23.883 38.16 26.744 38.26 29.629 38.316 C30.493 38.337 31.357 38.358 32.248 38.379 C35.019 38.445 37.791 38.504 40.562 38.562 C42.437 38.606 44.311 38.649 46.186 38.693 C50.79 38.801 55.395 38.902 60 39 C58.362 43.196 55.267 45.987 52.117 49.078 C51.543 49.65 50.969 50.221 50.377 50.81 C48.548 52.628 46.711 54.439 44.875 56.25 C43.631 57.484 42.388 58.718 41.145 59.953 C38.102 62.974 35.052 65.989 32 69 C32.144 69.748 32.289 70.495 32.438 71.266 C32.623 72.25 32.809 73.235 33 74.25 C33.186 75.225 33.371 76.199 33.562 77.203 C34 80 34 80 34 84 C37.92 81.824 41.037 79.303 44.312 76.25 C45.282 75.355 46.251 74.461 47.25 73.539 C48.157 72.701 49.065 71.863 50 71 C53.68 67.708 57.423 64.489 61.184 61.289 C68.013 55.473 74.721 49.564 81.309 43.477 C84.273 40.749 87.269 38.067 90.324 35.441 C91.822 34.153 93.288 32.829 94.75 31.5 C97 30 97 30 98.855 30.156 C101.688 31.271 103.355 32.906 105.562 35 C109.034 38.223 112.547 41.296 116.25 44.25 C122.014 48.911 127.389 53.938 132.793 59.004 C136.45 62.431 140.192 65.742 144 69 C145.104 69.947 146.208 70.893 147.312 71.84 C147.914 72.356 148.516 72.871 149.136 73.403 C150.37 74.46 151.603 75.518 152.836 76.576 C155.443 78.813 158.053 81.045 160.68 83.258 C161.404 83.874 162.129 84.49 162.875 85.125 C163.491 85.643 164.107 86.161 164.742 86.695 C165.157 87.126 165.572 87.556 166 88 C166 88.66 166 89.32 166 90 C123.43 90.33 80.86 90.66 37 91 C37.99 95.62 38.98 100.24 40 105 C16.9 105 -6.2 105 -30 105 C-30 83.22 -30 61.44 -30 39 C-28.35 38.835 -28.35 38.835 -20 38 C-19.394 36.849 -18.788 35.698 -18.164 34.512 C-12.109 23.008 -6.055 11.504 0 0 Z " fill="#FFFD00" transform="translate(30,151)"/><path d="M0 0 C2.764 -0.101 5.503 -0.136 8.268 -0.129 C9.134 -0.131 10.001 -0.133 10.894 -0.135 C13.773 -0.139 16.652 -0.136 19.531 -0.133 C21.523 -0.133 23.514 -0.134 25.506 -0.136 C29.686 -0.137 33.866 -0.135 38.045 -0.13 C43.416 -0.125 48.787 -0.128 54.157 -0.134 C58.271 -0.138 62.386 -0.136 66.5 -0.134 C68.481 -0.133 70.462 -0.134 72.442 -0.136 C75.206 -0.139 77.969 -0.135 80.732 -0.129 C81.559 -0.131 82.387 -0.133 83.239 -0.136 C85.16 -0.128 87.08 -0.07 89 0 C89.165 0.165 89.165 0.165 90 1 C90.101 3.764 90.136 6.503 90.129 9.268 C90.13 9.701 90.13 9.701 90.135 11.894 C90.139 14.773 90.136 17.652 90.133 20.531 C90.133 22.523 90.134 24.514 90.136 26.506 C90.137 30.686 90.135 34.866 90.13 39.045 C90.125 44.416 90.128 49.787 90.134 55.157 C90.138 59.271 90.136 63.386 90.134 67.5 C90.133 69.481 90.134 71.462 90.136 73.442 C90.139 76.206 90.135 78.969 90.129 81.732 C90.131 82.559 90.133 83.387 90.136 84.239 C90.128 86.16 90.07 88.08 90 90 C89.67 90.33 89.34 90.66 89 91 C86.236 91.101 83.497 91.136 80.732 91.129 C80.299 91.13 80.299 91.13 78.106 91.135 C75.227 91.139 72.348 91.136 69.469 91.133 C67.477 91.133 65.486 91.134 63.494 91.136 C59.314 91.137 55.134 91.135 50.955 91.13 C45.584 91.125 40.213 91.128 34.843 91.134 C30.729 91.138 26.614 91.136 22.5 91.134 C20.519 91.133 18.538 91.134 16.558 91.136 C13.794 91.139 11.031 91.135 8.268 91.129 C7.441 91.131 6.613 91.133 5.761 91.136 C3.84 91.128 1.92 91.07 0 91 C-0.33 90.67 -0.66 90.34 -1 90 C-1.101 87.236 -1.136 84.497 -1.129 81.732 C-1.131 80.866 -1.133 79.999 -1.135 79.106 C-1.139 76.227 -1.136 73.348 -1.133 70.469 C-1.133 68.477 -1.134 66.486 -1.136 64.494 C-1.137 60.314 -1.135 56.134 -1.13 51.955 C-1.125 46.584 -1.128 41.213 -1.134 35.843 C-1.138 31.729 -1.136 27.614 -1.134 23.5 C-1.133 21.519 -1.134 19.538 -1.136 17.558 C-1.139 14.794 -1.135 12.031 -1.129 9.268 C-1.131 8.441 -1.133 7.613 -1.136 6.761 C-1.128 4.84 -1.07 2.92 -1 1 C-0.67 0.67 -0.34 0.34 0 0 Z " fill="#0000FF" transform="translate(141,30)"/><path d="M0 0 C9.976 5.735 16.358 13.061 20.438 23.812 C23.292 33.465 22.939 42.67 19.383 52.082 C14.485 62.417 7.52 69.534 -2.848 74.312 C-12.272 77.889 -21.43 78.306 -31.125 75.5 C-40.547 71.94 -48.145 66.221 -53.562 57.691 C-58.851 47.789 -60.604 37.961 -58.375 26.898 C-55.581 17.243 -50.297 9.143 -42.25 3.062 C-29.024 -5.337 -14.257 -6.756 0 0 Z " fill="#FF0000" transform="translate(79,24)"/><path d="M0 0 C2.833 1.115 4.5 2.749 6.707 4.844 C10.178 8.067 13.692 11.14 17.395 14.094 C23.159 18.754 28.533 23.782 33.938 28.848 C37.594 32.275 41.336 35.586 45.145 38.844 C46.249 39.79 47.353 40.737 48.457 41.684 C49.059 42.199 49.661 42.715 50.281 43.246 C51.514 44.304 52.748 45.362 53.981 46.42 C56.588 48.656 59.197 50.888 61.824 53.102 C62.186 53.41 62.186 53.41 64.02 54.969 C64.636 55.487 65.252 56.005 65.887 56.539 C66.302 56.97 66.717 57.4 67.145 57.844 C67.145 58.504 67.145 59.164 67.145 59.844 C50.36 59.89 33.575 59.926 16.79 59.947 C8.996 59.958 1.203 59.972 -6.59 59.995 C-13.381 60.015 -20.171 60.027 -26.962 60.032 C-30.559 60.035 -34.156 60.041 -37.754 60.055 C-41.765 60.071 -45.776 60.072 -49.787 60.071 C-50.986 60.078 -52.185 60.085 -53.42 60.093 C-54.508 60.09 -55.596 60.087 -56.718 60.084 C-57.192 60.085 -57.192 60.085 -59.595 60.09 C-61.855 59.844 -61.855 59.844 -63.855 57.844 C-63.282 54.593 -62.416 53.059 -59.977 50.855 C-59.683 50.587 -59.683 50.587 -58.197 49.226 C-57.569 48.667 -56.94 48.108 -56.293 47.531 C-55.972 47.24 -55.972 47.24 -54.346 45.764 C-52.524 44.115 -50.692 42.477 -48.855 40.844 C-48.125 40.189 -47.394 39.534 -46.641 38.859 C-43.688 36.249 -40.685 33.699 -37.684 31.145 C-30.852 25.323 -24.139 19.412 -17.547 13.32 C-14.583 10.593 -11.587 7.91 -8.531 5.285 C-7.034 3.997 -5.567 2.673 -4.105 1.344 C-1.855 -0.156 -1.855 -0.156 0 0 Z " fill="#008000" transform="translate(128.85546875,181.15625)"/><path d="M0 0 C2.764 -0.101 5.503 -0.136 8.268 -0.129 C9.134 -0.131 10.001 -0.133 10.894 -0.135 C13.773 -0.139 16.652 -0.136 19.531 -0.133 C21.523 -0.133 23.514 -0.134 25.506 -0.136 C29.686 -0.137 33.866 -0.135 38.045 -0.13 C43.416 -0.125 48.787 -0.128 54.157 -0.134 C58.271 -0.138 62.386 -0.136 66.5 -0.134 C68.481 -0.133 70.462 -0.134 72.442 -0.136 C75.206 -0.139 77.969 -0.135 80.732 -0.129 C81.559 -0.131 82.387 -0.133 83.239 -0.136 C85.16 -0.128 87.08 -0.07 89 0 C89.165 0.165 89.165 0.165 90 1 C90.101 3.764 90.136 6.503 90.129 9.268 C90.13 9.701 90.13 9.701 90.135 11.894 C90.139 14.773 90.136 17.652 90.133 20.531 C90.133 22.523 90.134 24.514 90.136 26.506 C90.137 30.686 90.135 34.866 90.13 39.045 C90.125 44.416 90.128 49.787 90.134 55.157 C90.138 59.271 90.136 63.386 90.134 67.5 C90.133 69.481 90.134 71.462 90.136 73.442 C90.139 76.206 90.135 78.969 90.129 81.732 C90.131 82.559 90.133 83.387 90.136 84.239 C90.128 86.16 90.07 88.08 90 90 C89.67 90.33 89.34 90.66 89 91 C86.236 91.101 83.497 91.136 80.732 91.129 C80.299 91.13 80.299 91.13 78.106 91.135 C75.227 91.139 72.348 91.136 69.469 91.133 C67.477 91.133 65.486 91.134 63.494 91.136 C59.314 91.137 55.134 91.135 50.955 91.13 C45.584 91.125 40.213 91.128 34.843 91.134 C30.729 91.138 26.614 91.136 22.5 91.134 C20.519 91.133 18.538 91.134 16.558 91.136 C13.794 91.139 11.031 91.135 8.268 91.129 C7.441 91.131 6.613 91.133 5.761 91.136 C3.84 91.128 1.92 91.07 0 91 C-0.33 90.67 -0.66 90.34 -1 90 C-1.101 87.236 -1.136 84.497 -1.129 81.732 C-1.131 80.866 -1.133 79.999 -1.135 79.106 C-1.139 76.227 -1.136 73.348 -1.133 70.469 C-1.133 68.477 -1.134 66.486 -1.136 64.494 C-1.137 60.314 -1.135 56.134 -1.13 51.955 C-1.125 46.584 -1.128 41.213 -1.134 35.843 C-1.138 31.729 -1.136 27.614 -1.134 23.5 C-1.133 21.519 -1.134 19.538 -1.136 17.558 C-1.139 14.794 -1.135 12.031 -1.129 9.268 C-1.131 8.441 -1.133 7.613 -1.136 6.761 C-1.128 4.84 -1.07 2.92 -1 1 C-0.67 0.67 -0.34 0.34 0 0 Z M2 2 C1.67 2.33 1.34 2.66 1 3 C0.9 5.642 0.864 8.258 0.871 10.9 C0.869 11.728 0.867 12.556 0.865 13.408 C0.861 16.158 0.864 18.907 0.867 21.656 C0.867 23.558 0.866 25.46 0.864 27.362 C0.863 31.353 0.865 35.345 0.87 39.336 C0.875 44.465 0.872 49.593 0.866 54.722 C0.862 58.651 0.864 62.58 0.866 66.509 C0.867 68.4 0.866 70.292 0.864 72.183 C0.861 74.822 0.865 77.461 0.871 80.1 C0.869 80.889 0.867 81.679 0.864 82.492 C0.872 84.329 0.93 86.165 1 88 C1.33 88.33 1.66 88.66 2 89 C4.642 89.1 7.258 89.136 9.9 89.129 C10.728 89.131 11.556 89.133 12.408 89.135 C15.158 89.139 17.907 89.136 20.656 89.133 C22.558 89.133 24.46 89.134 26.362 89.136 C30.353 89.137 34.345 89.135 38.336 89.13 C43.465 89.125 48.593 89.128 53.722 89.134 C57.651 89.138 61.58 89.136 65.509 89.134 C67.4 89.133 69.292 89.134 71.183 89.136 C73.822 89.139 76.461 89.135 79.1 89.129 C79.889 89.131 80.679 89.133 81.492 89.136 C83.329 89.128 85.165 89.07 87 89 C87.33 88.67 87.66 88.34 88 88 C88.1 85.358 88.136 82.742 88.129 80.1 C88.131 79.272 88.133 78.444 88.135 77.592 C88.139 74.842 88.136 72.093 88.133 69.344 C88.133 67.442 88.134 65.54 88.136 63.638 C88.137 59.647 88.135 55.655 88.13 51.664 C88.125 46.535 88.128 41.407 88.134 36.278 C88.138 32.349 88.136 28.42 88.134 24.491 C88.133 22.6 88.134 20.708 88.136 18.817 C88.139 16.178 88.135 13.539 88.129 10.9 C88.13 10.506 88.13 10.506 88.136 8.508 C88.128 6.671 88.07 4.835 88 3 C87.835 2.835 87.835 2.835 87 2 C84.358 1.9 81.742 1.864 79.1 1.871 C78.272 1.869 77.444 1.867 76.592 1.865 C73.842 1.861 71.093 1.864 68.344 1.867 C66.442 1.867 64.54 1.866 62.638 1.864 C58.647 1.863 54.655 1.865 50.664 1.87 C45.535 1.875 40.407 1.872 35.278 1.866 C31.349 1.862 27.42 1.864 23.491 1.866 C21.6 1.867 19.708 1.866 17.817 1.864 C15.178 1.861 12.539 1.865 9.9 1.871 C9.111 1.869 8.321 1.867 7.508 1.864 C5.671 1.872 3.835 1.93 2 2 Z " fill="#00008B" transform="translate(141,30)"/><path d="M0 0 C2.833 1.115 4.5 2.749 6.707 4.844 C10.178 8.067 13.692 11.14 17.395 14.094 C23.159 18.754 28.533 23.782 33.938 28.848 C37.594 32.275 41.336 35.586 45.145 38.844 C46.249 39.79 47.353 40.737 48.457 41.684 C49.059 42.199 49.661 42.715 50.281 43.246 C51.514 44.304 52.748 45.362 53.981 46.42 C56.588 48.656 59.197 50.888 61.824 53.102 C62.186 53.41 62.186 53.41 64.02 54.969 C64.636 55.487 65.252 56.005 65.887 56.539 C66.302 56.97 66.717 57.4 67.145 57.844 C67.145 58.504 67.145 59.164 67.145 59.844 C24.575 59.844 -17.995 59.844 -61.855 59.844 C-61.855 59.184 -61.855 58.524 -61.855 57.844 C-21.265 57.844 19.325 57.844 61.145 57.844 C53.353 48.939 53.353 48.939 49.082 45.656 C44.515 42.027 40.211 38.21 35.957 34.219 C31.096 29.664 26.206 25.176 21.145 20.844 C20.017 19.874 18.889 18.904 17.762 17.934 C11.371 12.441 11.371 12.441 8.814 10.268 C7.691 9.31 6.575 8.345 5.466 7.373 C1.412 3.871 1.412 3.871 -1.293 3.594 C-4.486 5.152 -6.376 7.202 -8.797 9.773 C-11.046 12.035 -13.423 13.983 -15.918 15.969 C-21.753 20.663 -27.187 25.728 -32.648 30.848 C-36.305 34.275 -40.049 37.585 -43.855 40.844 C-44.995 41.825 -46.134 42.807 -47.273 43.789 C-48.53 44.87 -49.786 45.951 -51.043 47.031 C-51.638 47.543 -52.233 48.055 -52.846 48.582 C-56.134 51.401 -59.455 54.161 -62.855 56.844 C-62.855 53.844 -62.855 53.844 -61.697 52.421 C-61.162 51.937 -60.626 51.452 -60.074 50.953 C-59.484 50.412 -58.893 49.871 -58.285 49.314 C-57.648 48.746 -57.012 48.179 -56.355 47.594 C-55.708 47.006 -55.061 46.418 -54.395 45.813 C-52.556 44.147 -50.708 42.494 -48.855 40.844 C-48.123 40.188 -47.391 39.531 -46.637 38.855 C-43.685 36.247 -40.684 33.697 -37.684 31.145 C-30.852 25.323 -24.139 19.412 -17.547 13.32 C-14.583 10.593 -11.587 7.91 -8.531 5.285 C-7.034 3.997 -5.567 2.673 -4.105 1.344 C-1.855 -0.156 -1.855 -0.156 0 0 Z " fill="#006400" transform="translate(128.85546875,181.15625)"/><path d="M0 0 C9.976 5.735 16.358 13.061 20.438 23.812 C23.292 33.465 22.939 42.67 19.383 52.082 C14.485 62.417 7.52 69.534 -2.848 74.312 C-12.272 77.889 -21.43 78.306 -31.125 75.5 C-40.547 71.94 -48.145 66.221 -53.562 57.691 C-58.851 47.789 -60.604 37.961 -58.375 26.898 C-55.581 17.243 -50.297 9.143 -42.25 3.062 C-29.024 -5.337 -14.257 -6.756 0 0 Z M-47.969 11.031 C-54.308 18.445 -57.14 26.794 -57.5 36.5 C-57.14 46.206 -54.308 54.555 -47.969 61.969 C-40.473 69.702 -32.582 74.112 -21.766 75.379 C-11.97 75.742 -3.173 73.623 4.812 67.812 C12.864 60.928 17.824 53.453 20 43 C21.154 33.148 19.643 24.05 14.492 15.496 C8.432 7.167 1.087 1.567 -8.828 -1.34 C-24.13 -4.525 -37.234 -0.045 -47.969 11.031 Z " fill="#8B0000" transform="translate(79,24)"/><path d="M0 0 C1.926 0.827 3.827 1.717 5.703 2.652 C6.765 3.182 7.828 3.711 8.922 4.256 C10.02 4.811 11.118 5.366 12.25 5.938 C13.364 6.489 14.477 7.04 15.625 7.607 C16.682 8.138 17.739 8.668 18.828 9.215 C19.797 9.701 20.765 10.187 21.763 10.687 C24 12 24 12 25 14 C6.19 14 -12.62 14 -32 14 C-27.683 9.683 -22.545 7.476 -17.125 4.75 C-16.036 4.183 -14.946 3.616 -13.824 3.031 C-12.771 2.5 -11.718 1.969 -10.633 1.422 C-10.153 1.177 -10.153 1.177 -7.723 -0.06 C-4.533 -1.161 -3.181 -1.038 0 0 Z " fill="#FFFFFF" transform="translate(34,242)"/><path d="M0 0 C6.765 0.165 6.765 0.165 41 1 C38.914 5.173 36.388 7.867 33.117 11.078 C32.543 11.65 31.969 12.221 31.377 12.81 C29.548 14.628 27.711 16.439 25.875 18.25 C24.631 19.484 23.388 20.718 22.145 21.953 C19.102 24.974 16.052 27.989 13 31 C13.144 31.748 13.289 32.495 13.438 33.266 C13.623 34.25 13.809 35.235 14 36.25 C14.186 37.225 14.371 38.199 14.562 39.203 C15 42 15 42 15 46 C15.66 46.33 16.32 46.66 17 47 C17.562 49.188 17.562 49.188 18 52 C18.832 57.052 19.855 62.011 21 67 C20.34 67 19.68 67 19 67 C17.308 61.007 15.641 55.007 14 49 C13.787 48.222 13.574 47.443 13.354 46.642 C12.766 44.472 12.193 42.3 11.625 40.125 C11.445 39.466 11.266 38.808 11.081 38.129 C10.195 34.672 9.652 32.324 11 29 C12.723 27.034 14.437 25.237 16.312 23.43 C16.841 22.907 17.37 22.385 17.915 21.847 C19.603 20.182 21.301 18.528 23 16.875 C24.697 15.213 26.392 13.549 28.085 11.882 C29.138 10.846 30.194 9.813 31.253 8.783 C34.889 5.221 34.889 5.221 36 3 C24.45 3 12.9 3 1 3 C0.67 2.01 0.34 1.02 0 0 Z " fill="#FFA500" transform="translate(49,189)"/><path d="M0 0 C0.66 0.33 1.32 0.66 2 1 C2 1.66 2 2.32 2 3 C1.01 3 0.02 3 -1 3 C-0.67 2.01 -0.34 1.02 0 0 Z " fill="#FFBE00" transform="translate(30,151)"/></svg>
