<?xml version="1.0" encoding="UTF-8"?><svg version="1.1" xmlns="http://www.w3.org/2000/svg" width="256" height="256"><path d="M0 0 C84.48 0 168.96 0 256 0 C256 84.48 256 168.96 256 256 C171.52 256 87.04 256 0 256 C0 171.52 0 87.04 0 0 Z " fill="#FFFFFF" transform="translate(0,0)"/><path d="M0 0 C2.979 3.613 4.94 7.59 7.012 11.758 C7.198 12.13 7.198 12.13 8.142 14.013 C8.927 15.581 9.709 17.149 10.49 18.718 C11.688 21.126 12.895 23.53 14.104 25.934 C14.865 27.458 15.626 28.983 16.387 30.508 C16.749 31.229 17.112 31.949 17.485 32.692 C20 37.77 20 37.77 20 40 C33.53 40 47.06 40 61 40 C57.108 44.54 53.66 48.385 49.312 52.328 C48.273 53.302 47.235 54.277 46.199 55.254 C44.597 56.764 42.988 58.261 41.346 59.728 C32.21 67.928 32.21 67.928 31.691 73.045 C32.43 77.422 33.943 81.087 36 85 C36.918 84.143 37.836 83.286 38.781 82.402 C46.126 75.553 53.523 68.81 61.172 62.301 C66.986 57.346 72.761 52.369 78.375 47.188 C78.869 46.732 79.362 46.276 79.871 45.807 C80.348 45.367 80.825 44.926 81.316 44.473 C86.985 39.25 92.645 34.369 99 30 C99.739 30.69 100.477 31.379 101.238 32.09 C106.172 36.669 111.116 41.166 116.375 45.375 C122.105 49.986 127.431 54.978 132.793 60.004 C136.45 63.431 140.191 66.743 144 70 C145.092 70.935 146.185 71.87 147.277 72.805 C147.874 73.315 148.471 73.826 149.085 74.352 C158.763 82.637 158.763 82.637 163.375 86.688 C164.084 87.31 164.793 87.933 165.523 88.574 C166.011 89.045 166.498 89.515 167 90 C167 90.33 167 90.66 167 91 C123.77 91 80.54 91 36 91 C37.32 95.95 38.64 100.9 40 106 C16.9 106 -6.2 106 -30 106 C-30 84.22 -30 62.44 -30 40 C-26.37 40 -22.74 40 -19 40 C-18.751 39.175 -18.501 38.351 -18.245 37.501 C-16.815 33.478 -15.015 29.779 -13.086 25.977 C-12.711 25.23 -12.337 24.484 -11.951 23.715 C-10.763 21.35 -9.569 18.987 -8.375 16.625 C-7.565 15.015 -6.755 13.404 -5.945 11.793 C-3.968 7.86 -1.985 3.929 0 0 Z " fill="#FFFC00" transform="translate(30,150)"/><path d="M0 0 C30.03 0 60.06 0 91 0 C91 30.03 91 60.06 91 91 C60.97 91 30.94 91 0 91 C0 60.97 0 30.94 0 0 Z " fill="#0000FF" transform="translate(140,30)"/><path d="M0 0 C10.334 6.965 16.48 16.088 19.051 28.305 C20.546 41.056 17.172 51.76 9.309 61.828 C1.973 69.874 -7.387 74.418 -18.18 75.684 C-30.981 76.158 -41.512 71.909 -50.949 63.305 C-59.06 54.349 -62.784 43.563 -62.324 31.531 C-61.019 20.301 -56.018 10.801 -47.629 3.203 C-33.25 -7.662 -15.647 -8.995 0 0 Z " fill="#FF0000" transform="translate(81.94921875,25.6953125)"/><path d="M0 0 C7.065 4.987 13.232 10.75 19.536 16.64 C23.64 20.452 27.91 24.074 32.176 27.703 C39.008 33.524 45.721 39.435 52.312 45.527 C56.931 49.777 61.644 53.9 66.5 57.875 C67.325 58.576 68.15 59.278 69 60 C69 60.33 69 60.66 69 61 C25.77 61 -17.46 61 -62 61 C-63 56 -63 56 -61.953 54.297 C-61.391 53.786 -60.829 53.276 -60.25 52.75 C-59.596 52.149 -58.943 51.549 -58.27 50.93 C-54.929 48.09 -51.518 45.342 -48.102 42.594 C-43.268 38.622 -38.77 34.272 -34.207 29.996 C-30.55 26.569 -26.809 23.257 -23 20 C-21.305 18.549 -19.61 17.099 -17.915 15.648 C-16.688 14.598 -15.461 13.548 -14.234 12.499 C-9.437 8.391 -4.696 4.224 0 0 Z " fill="#008000" transform="translate(128,180)"/><path d="M0 0 C30.03 0 60.06 0 91 0 C91 30.03 91 60.06 91 91 C60.97 91 30.94 91 0 91 C0 60.97 0 30.94 0 0 Z M2 2 C2 30.71 2 59.42 2 89 C30.71 89 59.42 89 89 89 C89 60.29 89 31.58 89 2 C60.29 2 31.58 2 2 2 Z " fill="#00008B" transform="translate(140,30)"/><path d="M0 0 C7.065 4.987 13.232 10.75 19.536 16.64 C23.64 20.452 27.91 24.074 32.176 27.703 C39.008 33.524 45.721 39.435 52.312 45.527 C56.931 49.777 61.644 53.9 66.5 57.875 C67.325 58.576 68.15 59.278 69 60 C69 60.33 69 60.66 69 61 C25.77 61 -17.46 61 -62 61 C-62 60.34 -62 59.68 -62 59 C-41.54 58.835 -41.54 58.835 62 58 C54.255 50.255 54.255 50.255 49.938 46.875 C44.102 42.181 38.669 37.115 33.207 31.996 C29.55 28.569 25.808 25.258 22 22 C20.884 21.042 19.768 20.083 18.652 19.125 C15.691 16.583 12.727 14.044 9.761 11.507 C6.839 9.007 3.92 6.503 1 4 C-3.583 6.884 -7.454 10.089 -11.375 13.812 C-12.529 14.893 -13.684 15.972 -14.84 17.051 C-15.389 17.565 -15.938 18.078 -16.503 18.608 C-20.616 22.434 -24.899 26.064 -29.176 29.703 C-34.989 34.656 -40.762 39.633 -46.375 44.812 C-53.51 51.395 -53.51 51.395 -56.562 54.125 C-57.162 54.664 -57.761 55.203 -58.379 55.758 C-60 57 -60 57 -63 58 C-61.395 53.744 -58.179 51.141 -54.875 48.188 C-54.284 47.651 -53.693 47.115 -53.084 46.562 C-51.395 45.035 -49.699 43.516 -48 42 C-47.292 41.367 -46.585 40.734 -45.855 40.082 C-42.875 37.452 -39.852 34.873 -36.824 32.297 C-29.992 26.476 -23.279 20.565 -16.688 14.473 C-11.264 9.483 -5.684 4.69 0 0 Z " fill="#006400" transform="translate(128,180)"/><path d="M0 0 C10.334 6.965 16.48 16.088 19.051 28.305 C20.546 41.056 17.172 51.76 9.309 61.828 C1.973 69.874 -7.387 74.418 -18.18 75.684 C-30.981 76.158 -41.512 71.909 -50.949 63.305 C-59.06 54.349 -62.784 43.563 -62.324 31.531 C-61.019 20.301 -56.018 10.801 -47.629 3.203 C-33.25 -7.662 -15.647 -8.995 0 0 Z M-52.762 11.492 C-59.241 20.398 -61.219 30.463 -59.949 41.305 C-57.593 52.626 -51.768 61.02 -42.453 67.797 C-32.962 73.512 -22.562 74.889 -11.777 72.645 C-1.001 69.485 7.254 62.931 13.051 53.305 C17.867 43.144 18.65 32.841 15.488 22.055 C11.618 11.783 4.205 3.696 -5.734 -1.016 C-23.568 -7.736 -40.548 -2.791 -52.762 11.492 Z " fill="#8B0000" transform="translate(81.94921875,25.6953125)"/><path d="M0 0 C1.063 0.539 2.126 1.079 3.221 1.635 C4.378 2.218 5.535 2.801 6.727 3.402 C7.938 4.02 9.148 4.638 10.358 5.256 C11.588 5.878 12.818 6.5 14.048 7.121 C17.05 8.64 20.049 10.164 23.046 11.693 C23.046 12.023 23.046 12.353 23.046 12.693 C3.576 12.693 -15.894 12.693 -35.954 12.693 C-30.933 8.927 -25.603 6.274 -20.017 3.443 C-18.932 2.876 -17.847 2.309 -16.73 1.724 C-15.681 1.193 -14.632 0.662 -13.552 0.115 C-12.598 -0.374 -11.644 -0.863 -10.662 -1.366 C-6.419 -2.84 -4.01 -1.774 0 0 Z " fill="#FFFFFF" transform="translate(36.954345703125,243.306884765625)"/><path d="M0 0 C2.979 3.613 4.94 7.59 7.012 11.758 C7.198 12.13 7.198 12.13 8.142 14.013 C8.927 15.581 9.709 17.149 10.49 18.718 C11.688 21.126 12.895 23.53 14.104 25.934 C14.865 27.458 15.626 28.983 16.387 30.508 C16.749 31.229 17.112 31.949 17.485 32.692 C20 37.77 20 37.77 20 40 C33.53 40 47.06 40 61 40 C57.108 44.54 53.66 48.385 49.312 52.328 C48.273 53.302 47.235 54.277 46.199 55.254 C44.597 56.764 42.988 58.261 41.346 59.728 C32.272 67.872 32.272 67.872 31.652 72.722 C32.156 75.635 33.002 78.219 34 81 C34.523 83.176 35.025 85.358 35.508 87.543 C36.044 89.759 36.583 91.973 37.125 94.188 C37.402 95.33 37.679 96.473 37.965 97.65 C38.64 100.434 39.319 103.217 40 106 C39.34 106 38.68 106 38 106 C36.308 100.007 34.641 94.007 33 88 C32.787 87.222 32.574 86.443 32.354 85.642 C31.766 83.472 31.193 81.3 30.625 79.125 C30.445 78.466 30.266 77.808 30.081 77.129 C29.194 73.668 28.639 71.323 30 68 C31.805 65.94 33.608 64.043 35.566 62.141 C36.057 61.653 36.547 61.166 37.053 60.664 C38.881 58.851 40.723 57.051 42.562 55.25 C44.615 53.229 44.615 53.229 55 43 C49.225 42.835 49.225 42.835 20 42 C13.505 29.742 7.15 17.435 1 5 C-1.86 8.482 -3.787 12.333 -5.758 16.355 C-6.106 17.058 -6.455 17.76 -6.814 18.483 C-7.921 20.716 -9.024 22.952 -10.125 25.188 C-11.234 27.434 -12.345 29.679 -13.457 31.924 C-14.149 33.318 -14.838 34.714 -15.524 36.11 C-17.888 40.888 -17.888 40.888 -19 42 C-20.853 42.072 -22.708 42.084 -24.562 42.062 C-25.574 42.053 -26.586 42.044 -27.629 42.035 C-28.411 42.024 -29.194 42.012 -30 42 C-30 41.34 -30 40.68 -30 40 C-26.37 40 -22.74 40 -19 40 C-18.751 39.175 -18.501 38.351 -18.245 37.501 C-16.815 33.478 -15.015 29.779 -13.086 25.977 C-12.711 25.23 -12.337 24.484 -11.951 23.715 C-10.763 21.35 -9.569 18.987 -8.375 16.625 C-7.565 15.015 -6.755 13.404 -5.945 11.793 C-3.968 7.86 -1.985 3.929 0 0 Z " fill="#FFA500" transform="translate(30,150)"/></svg>
