<?xml version="1.0" encoding="UTF-8"?><svg version="1.1" xmlns="http://www.w3.org/2000/svg" width="256" height="256"><path d="M0 0 C84.48 0 168.96 0 256 0 C256 84.48 256 168.96 256 256 C171.52 256 87.04 256 0 256 C0 171.52 0 87.04 0 0 Z " fill="#FF8000" transform="translate(0,0)"/><path d="M0 0 C20.46 0 40.92 0 62 0 C62.99 2.64 62.99 2.64 68 16 C79.364 34.182 93.219 45.612 114 51 C131.52 54.602 149.793 51.371 165 42 C180.921 31.088 188.545 18.074 195 0 C215.13 0 235.26 0 256 0 C256 36.96 256 73.92 256 112 C171.52 112 87.04 112 0 112 C0 75.04 0 38.08 0 0 Z " fill="#0000FF" transform="translate(0,144)"/><path d="M0 0 C14.268 11.439 23.77 26.578 26.354 44.784 C27.968 62.227 23.982 80.151 12.842 94.045 C1.054 107.844 -14.354 117.276 -32.64 118.968 C-50.197 120.112 -67.911 115.521 -81.485 103.925 C-95.053 91.639 -103.765 76.149 -104.966 57.706 C-105.665 40.072 -100.368 22.632 -88.396 9.409 C-65.272 -14.904 -27.825 -20.561 0 0 Z " fill="#FFFFFF" transform="translate(167.64599609375,75.21630859375)"/><path d="M0 0 C84.48 0 168.96 0 256 0 C256 13.2 256 26.4 256 40 C171.52 40 87.04 40 0 40 C0 26.8 0 13.6 0 0 Z " fill="#8000FF" transform="translate(0,216)"/><path d="M0 0 C84.48 0 168.96 0 256 0 C256 11.88 256 23.76 256 36 C171.52 36 87.04 36 0 36 C0 24.12 0 12.24 0 0 Z " fill="#FF0000" transform="translate(0,0)"/><path d="M0 0 C2.509 1.95 4.908 3.975 7.285 6.082 C7.899 6.602 8.512 7.121 9.145 7.656 C13.147 11.3 16.09 15.515 19.035 20.02 C19.224 20.306 19.224 20.306 20.178 21.756 C22.973 26.181 24.377 29.994 26.285 35.082 C36.515 35.247 36.515 35.247 88.285 36.082 C88.285 47.962 88.285 59.842 88.285 72.082 C68.155 72.082 48.025 72.082 27.285 72.082 C26.625 75.052 25.965 78.022 25.285 81.082 C22.026 89.459 17.216 96.391 11.285 103.082 C10.766 103.696 10.246 104.309 9.711 104.941 C-1.445 117.193 -18.103 124.279 -34.457 125.32 C-54.137 125.849 -70.807 120.296 -85.715 107.082 C-86.022 106.822 -86.022 106.822 -87.574 105.508 C-96.109 97.736 -102.888 86.251 -105.715 75.082 C-105.715 74.092 -105.715 73.102 -105.715 72.082 C-126.175 72.082 -146.635 72.082 -167.715 72.082 C-167.715 60.202 -167.715 48.322 -167.715 36.082 C-146.925 35.752 -126.135 35.422 -104.715 35.082 C-103.395 31.782 -102.075 28.482 -100.715 25.082 C-90.535 7.623 -76.284 -4.086 -57.09 -10.043 C-37.571 -15.104 -16.53 -11.678 0 0 Z M-91.062 15.848 C-102.118 30.312 -106.485 47.056 -104.715 65.082 C-101.541 84.068 -92.348 98.953 -77.215 110.52 C-62.115 120.828 -44.754 124.429 -26.789 121.426 C-7.175 116.7 7.75 106.281 18.285 89.082 C26.624 74.108 28.721 56.992 24.723 40.395 C18.901 21.311 8.105 7.335 -9.395 -2.41 C-38.015 -16.43 -70.749 -8.082 -91.062 15.848 Z " fill="#00FF00" transform="translate(167.71484375,71.91796875)"/><path d="M0 0 C8.36 5.952 14.258 15.224 16.25 25.312 C17.232 37.051 14.858 46.624 8.008 56.246 C1.374 64.045 -8.311 69.69 -18.598 70.551 C-30.128 70.817 -39.871 67.865 -48.75 60.312 C-57.477 51.153 -61.153 41.258 -61.027 28.762 C-60.256 19.169 -55.636 9.968 -48.68 3.34 C-33.819 -8.854 -16.487 -9.998 0 0 Z " fill="#C8C8C8" transform="translate(150.75,96.6875)"/><path d="M0 0 C29.37 0 58.74 0 89 0 C84 5 84 5 82.078 6.746 C77.764 10.737 74.424 15.026 71.25 19.938 C70.886 20.498 70.521 21.059 70.146 21.636 C67.209 26.323 65.301 30.824 63 36 C42.21 36 21.42 36 0 36 C0 24.12 0 12.24 0 0 Z " fill="#FFFF00" transform="translate(0,72)"/><path d="M0 0 C29.04 0 58.08 0 88 0 C88 11.88 88 23.76 88 36 C67.54 36 47.08 36 26 36 C23.36 30.72 20.72 25.44 18 20 C13.234 13.312 8.13 8.048 1.906 2.715 C1.277 2.149 0.648 1.583 0 1 C0 0.67 0 0.34 0 0 Z " fill="#FFFF00" transform="translate(168,72)"/><path d="M0 0 C20.46 0 40.92 0 62 0 C62.99 2.64 62.99 2.64 68 16 C72.675 23.337 77.328 29.383 83 36 C55.61 36 28.22 36 0 36 C0 24.12 0 12.24 0 0 Z " fill="#00FFFF" transform="translate(0,144)"/><path d="M0 0 C20.13 0 40.26 0 61 0 C61 11.88 61 23.76 61 36 C33.94 36 6.88 36 -21 36 C-19.02 33.69 -17.04 31.38 -15 29 C-7.964 19.868 -3.648 10.945 0 0 Z " fill="#00FFFF" transform="translate(195,144)"/><path d="M0 0 C20.46 0 40.92 0 62 0 C62 11.88 62 23.76 62 36 C41.87 36 21.74 36 1 36 C1.33 33.69 1.66 31.38 2 29 C2.116 26.258 2.185 23.553 2.188 20.812 C2.2 20.134 2.212 19.455 2.225 18.756 C2.243 12.167 1.127 6.76 0 0 Z " fill="#00FF00" transform="translate(194,108)"/><path d="M0 0 C2.509 1.95 4.908 3.975 7.285 6.082 C7.899 6.602 8.512 7.121 9.145 7.656 C21.396 18.812 28.482 35.47 29.523 51.824 C30.052 71.504 24.499 88.174 11.285 103.082 C10.766 103.696 10.246 104.309 9.711 104.941 C-1.445 117.193 -18.103 124.279 -34.457 125.32 C-54.137 125.849 -70.807 120.296 -85.715 107.082 C-86.328 106.563 -86.942 106.043 -87.574 105.508 C-99.826 94.352 -106.912 77.694 -107.953 61.34 C-108.482 41.66 -102.928 24.99 -89.715 10.082 C-89.195 9.468 -88.676 8.855 -88.141 8.223 C-65.982 -16.113 -26.344 -18.612 0 0 Z M-91.062 15.848 C-102.118 30.312 -106.485 47.056 -104.715 65.082 C-101.541 84.068 -92.348 98.953 -77.215 110.52 C-62.115 120.828 -44.754 124.429 -26.789 121.426 C-7.175 116.7 7.75 106.281 18.285 89.082 C26.624 74.108 28.721 56.992 24.723 40.395 C18.901 21.311 8.105 7.335 -9.395 -2.41 C-38.015 -16.43 -70.749 -8.082 -91.062 15.848 Z " fill="#000000" transform="translate(167.71484375,71.91796875)"/><path d="M0 0 C84.48 0 168.96 0 256 0 C256 0.99 256 1.98 256 3 C171.52 3 87.04 3 0 3 C0 2.01 0 1.02 0 0 Z " fill="#FFFFFF" transform="translate(0,253)"/><path d="M0 0 C8.36 5.952 14.258 15.224 16.25 25.312 C17.232 37.051 14.858 46.624 8.008 56.246 C1.374 64.045 -8.311 69.69 -18.598 70.551 C-30.128 70.817 -39.871 67.865 -48.75 60.312 C-57.477 51.153 -61.153 41.258 -61.027 28.762 C-60.256 19.169 -55.636 9.968 -48.68 3.34 C-33.819 -8.854 -16.487 -9.998 0 0 Z M-51 8.625 C-58.143 17.383 -59.633 27.32 -58.75 38.312 C-56.407 48.65 -50.518 57.331 -41.75 63.312 C-32.475 68.233 -23.161 69.992 -12.734 67.629 C-2.989 64.349 5.582 58.227 10.473 49.008 C14.835 39.469 16.041 29.648 12.625 19.5 C8.238 8.909 0.881 1.502 -9.637 -2.926 C-25.079 -8.492 -40.213 -2.996 -51 8.625 Z " fill="#000000" transform="translate(150.75,96.6875)"/></svg>
