<?xml version="1.0" encoding="UTF-8"?><svg version="1.1" xmlns="http://www.w3.org/2000/svg" width="256" height="256"><path d="M0 0 C84.48 0 168.96 0 256 0 C256 84.48 256 168.96 256 256 C171.52 256 87.04 256 0 256 C0 171.52 0 87.04 0 0 Z M2 3 C1.903 4.339 1.874 5.682 1.874 7.025 C1.872 7.897 1.869 8.769 1.866 9.668 C1.868 10.637 1.871 11.606 1.873 12.604 C1.871 13.626 1.87 14.647 1.868 15.699 C1.864 19.148 1.867 22.597 1.871 26.047 C1.869 28.508 1.867 30.97 1.865 33.432 C1.861 39.44 1.862 45.449 1.865 51.458 C1.867 56.339 1.867 61.22 1.866 66.101 C1.866 66.795 1.866 67.488 1.866 68.203 C1.865 69.611 1.865 71.02 1.865 72.428 C1.862 85.65 1.865 98.873 1.871 112.095 C1.875 123.453 1.874 134.81 1.87 146.168 C1.864 159.341 1.862 172.515 1.865 185.688 C1.866 187.092 1.866 188.495 1.866 189.899 C1.866 190.589 1.866 191.28 1.867 191.991 C1.868 196.869 1.866 201.748 1.864 206.626 C1.861 213.186 1.863 219.745 1.869 226.305 C1.87 228.72 1.87 231.135 1.867 233.55 C1.865 236.832 1.868 240.114 1.873 243.396 C1.871 244.365 1.869 245.334 1.866 246.332 C1.869 247.205 1.871 248.077 1.874 248.975 C1.874 249.734 1.874 250.492 1.875 251.274 C2 253 2 253 3 254 C4.339 254.097 5.682 254.126 7.025 254.126 C7.897 254.128 8.769 254.131 9.668 254.134 C10.637 254.132 11.606 254.129 12.604 254.127 C13.626 254.129 14.647 254.13 15.699 254.132 C19.148 254.136 22.597 254.133 26.047 254.129 C28.508 254.131 30.97 254.133 33.432 254.135 C39.44 254.139 45.449 254.138 51.458 254.135 C56.339 254.133 61.22 254.133 66.101 254.134 C66.795 254.134 67.488 254.134 68.203 254.134 C69.611 254.135 71.02 254.135 72.428 254.135 C85.65 254.138 98.873 254.135 112.095 254.129 C123.453 254.125 134.81 254.126 146.168 254.13 C159.341 254.136 172.515 254.138 185.688 254.135 C187.092 254.134 188.495 254.134 189.899 254.134 C190.244 254.134 190.244 254.134 191.991 254.133 C196.869 254.132 201.748 254.134 206.626 254.136 C213.186 254.139 219.745 254.137 226.305 254.131 C228.72 254.13 231.135 254.13 233.55 254.133 C236.832 254.135 240.114 254.132 243.396 254.127 C244.365 254.129 245.334 254.131 246.332 254.134 C247.205 254.131 248.077 254.129 248.975 254.126 C249.355 254.126 249.355 254.126 251.274 254.125 C253 254 253 254 254 253 C254.097 251.661 254.126 250.318 254.126 248.975 C254.128 248.103 254.131 247.231 254.134 246.332 C254.132 245.363 254.129 244.394 254.127 243.396 C254.129 242.374 254.13 241.353 254.132 240.301 C254.136 236.852 254.133 233.403 254.129 229.953 C254.131 227.492 254.133 225.03 254.135 222.568 C254.139 216.56 254.138 210.551 254.135 204.542 C254.133 199.661 254.133 194.78 254.134 189.899 C254.134 189.552 254.134 189.552 254.134 187.797 C254.135 186.389 254.135 184.98 254.135 183.572 C254.138 170.35 254.135 157.127 254.129 143.905 C254.125 132.547 254.126 121.19 254.13 109.832 C254.136 96.659 254.138 83.485 254.135 70.312 C254.134 68.908 254.134 67.505 254.134 66.101 C254.134 65.411 254.134 64.72 254.133 64.009 C254.132 59.131 254.134 54.252 254.136 49.374 C254.139 42.814 254.137 36.255 254.131 29.695 C254.13 27.28 254.13 24.865 254.133 22.45 C254.135 19.168 254.132 15.886 254.127 12.604 C254.129 11.635 254.131 10.666 254.134 9.668 C254.131 8.795 254.129 7.923 254.126 7.025 C254.126 6.266 254.126 5.508 254.125 4.726 C254 3 254 3 253 2 C251.661 1.903 250.318 1.874 248.975 1.874 C248.103 1.872 247.231 1.869 246.332 1.866 C245.848 1.867 245.848 1.867 243.396 1.873 C242.885 1.872 242.885 1.872 240.301 1.868 C236.852 1.864 233.403 1.867 229.953 1.871 C227.492 1.869 225.03 1.867 222.568 1.865 C216.56 1.861 210.551 1.862 204.542 1.865 C199.661 1.867 194.78 1.867 189.899 1.866 C189.205 1.866 188.512 1.866 187.797 1.866 C186.389 1.865 184.98 1.865 183.572 1.865 C170.35 1.862 157.127 1.865 143.905 1.871 C132.547 1.875 121.19 1.874 109.832 1.87 C96.659 1.864 83.485 1.862 70.312 1.865 C68.908 1.866 67.505 1.866 66.101 1.866 C65.756 1.866 65.756 1.866 64.009 1.867 C59.131 1.868 54.252 1.866 49.374 1.864 C42.814 1.861 36.255 1.863 29.695 1.869 C27.28 1.87 24.865 1.87 22.45 1.867 C19.168 1.865 15.886 1.868 12.604 1.873 C11.635 1.871 10.666 1.869 9.668 1.866 C9.232 1.868 9.232 1.868 7.025 1.874 C6.645 1.874 6.645 1.874 4.726 1.875 C3 2 3 2 2 3 Z " fill="#000000" transform="translate(0,0)"/><path d="M0 0 C2.365 0.949 3.717 1.506 5.005 3.756 C5.12 4.1 5.12 4.1 5.703 5.844 C5.961 6.595 6.219 7.347 6.484 8.121 C6.737 8.906 6.99 9.691 7.25 10.5 C7.518 11.285 7.786 12.07 8.062 12.879 C10 18.642 10 18.642 10 21 C10.66 21 11.32 21 12 21 C12.117 20.323 12.235 19.646 12.355 18.949 C13.115 15.473 14.166 12.182 15.312 8.812 C15.517 8.197 15.517 8.197 16.551 5.082 C18 2 18 2 20.168 0.574 C20.773 0.385 21.377 0.195 22 0 C21.344 5.421 19.635 10.188 17.688 15.25 C17.392 16.065 17.096 16.879 16.791 17.719 C16.493 18.497 16.194 19.276 15.887 20.078 C15.621 20.784 15.355 21.489 15.081 22.216 C13.729 24.447 12.385 25.043 10 26 C6.63 22.184 5.105 17.686 3.312 13 C3.152 12.597 3.152 12.597 2.342 10.555 C2.191 10.164 2.191 10.164 1.426 8.188 C1.152 7.48 0.877 6.772 0.595 6.043 C0 4 0 4 0 0 Z " fill="#000000" transform="translate(21,37)"/><path d="M0 0 C0.66 0 1.32 0 2 0 C3.257 2.906 4 4.796 4 8 C3.67 8.33 3.34 8.66 3 9 C2.874 10.767 2.824 12.541 2.812 14.312 C2.798 15.278 2.784 16.244 2.77 17.238 C3.001 20.015 3.579 21.635 5 24 C0.125 23.125 0.125 23.125 -1 22 C-1.21 19.879 -1.369 17.752 -1.5 15.625 C-1.716 12.149 -1.898 9.307 -3 6 C-1.562 2.812 -1.562 2.812 0 0 Z " fill="#000000" transform="translate(86,39)"/><path d="M0 0 C2.875 1.625 2.875 1.625 5 4 C5 5.98 5 7.96 5 10 C3.02 10.165 3.02 10.165 -7 11 C-6.67 12.32 -6.34 13.64 -6 15 C-2.053 15.179 0.598 15.094 4 13 C4.33 13.66 4.66 14.32 5 15 C2.611 18.058 1.471 18.931 -2.438 19.5 C-6.662 18.907 -8.237 18.251 -11 15 C-12.357 10.987 -12.443 8.02 -10.75 4.125 C-7.483 0.158 -4.99 -0.599 0 0 Z M-6 3 C-6.33 3.495 -6.33 3.495 -8 6 C-7 7 -7 7 -5.152 7.098 C-3.102 7.065 -1.051 7.033 1 7 C1 6.01 1 5.02 1 4 C0 3 0 3 -3.062 2.938 C-4.032 2.958 -5.001 2.979 -6 3 Z " fill="#000000" transform="translate(57,44)"/><path d="M0 0 C2.375 1.5 2.375 1.5 4 3 C3.67 3.99 3.34 4.98 3 6 C2.01 5.34 1.02 4.68 0 4 C-3.125 3.812 -3.125 3.812 -6 4 C-7 5 -7 5 -7.133 7.031 C-7.13 7.846 -7.128 8.661 -7.125 9.5 C-7.128 10.315 -7.13 11.129 -7.133 11.969 C-7 14 -7 14 -6 15 C-0.588 15.471 -0.588 15.471 1.875 13.5 C2.246 13.005 2.618 12.51 3 12 C3.33 13.32 3.66 14.64 4 16 C1.656 18.163 0.254 18.962 -2.938 19.438 C-6.809 18.884 -8.359 17.868 -11 15 C-12.481 10.46 -12.007 7.3 -10 3 C-6.947 -0.271 -4.366 -0.546 0 0 Z " fill="#000000" transform="translate(77,44)"/><path d="M0 0 C2.893 1.543 4.558 2.701 5.637 5.871 C6.265 9.447 6.217 11.501 4.75 14.875 C2.427 17.696 0.775 18.899 -2.875 19.375 C-6.881 18.894 -8.343 18.037 -11 15 C-12.364 10.993 -12.441 8.015 -10.75 4.125 C-7.483 0.158 -4.99 -0.599 0 0 Z M-8 5 C-8.266 7.094 -8.266 7.094 -8.25 9.5 C-8.255 10.294 -8.26 11.088 -8.266 11.906 C-8 14 -8 14 -6 16 C-3 16.25 -3 16.25 0 16 C2 14 2 14 2.266 11.906 C2.26 11.112 2.255 10.318 2.25 9.5 C2.255 8.706 2.26 7.912 2.266 7.094 C2 5 2 5 0 3 C-5.538 2.538 -5.538 2.538 -8 5 Z " fill="#000000" transform="translate(105,44)"/><path d="M0 0 C2.051 0.033 4.102 0.065 6.152 0.098 C6.152 1.088 6.152 2.078 6.152 3.098 C4.832 3.428 3.512 3.758 2.152 4.098 C1.822 8.718 1.492 13.338 1.152 18.098 C-0.168 18.098 -1.488 18.098 -2.848 18.098 C-2.874 15.285 -2.894 12.473 -2.91 9.66 C-2.919 8.858 -2.927 8.055 -2.936 7.229 C-2.944 5.185 -2.9 3.141 -2.848 1.098 C-1.848 0.098 -1.848 0.098 0 0 Z " fill="#000000" transform="translate(116.84765625,43.90234375)"/><path d="M0 0 C2.875 1.25 2.875 1.25 5 3 C5.812 5.188 5.812 5.188 6 7 C5.01 7 4.02 7 3 7 C2.794 6.752 2.794 6.752 1.75 5.5 C-0.965 3.173 -3.564 3.806 -7 4 C-7.33 5.32 -7.66 6.64 -8 8 C-7.402 8.217 -7.402 8.217 -4.375 9.312 C-0.788 10.653 2.606 12.218 6 14 C7.343 20.348 7.343 20.348 5.75 23.375 C2.584 26.315 -0.816 26.284 -4.996 26.215 C-8 25.893 -9.743 24.983 -12 23 C-12.812 20.312 -12.812 20.312 -13 18 C-12.01 18 -11.02 18 -10 18 C-9.422 18.66 -8.845 19.32 -8.25 20 C-6 22 -6 22 -2.375 22.375 C1 22 1 22 3 20 C3 19.01 3 18.02 3 17 C2.085 16.662 1.17 16.325 0.227 15.977 C-0.962 15.531 -2.15 15.085 -3.375 14.625 C-4.558 14.184 -5.742 13.743 -6.961 13.289 C-10 12 -10 12 -12 10 C-12.438 7.125 -12.438 7.125 -12 4 C-8.384 -0.164 -5.368 -0.671 0 0 Z " fill="#000000" transform="translate(35,87)"/><path d="M0 0 C0.66 0.33 1.32 0.66 2 1 C2 8.92 2 16.84 2 25 C-3.021 26.004 -7.27 26.547 -11.875 23.938 C-13.692 20.808 -14.132 17.56 -14 14 C-12.643 11.028 -11.297 9.297 -9 7 C-3.667 6.667 -3.667 6.667 -1 8 C-1.021 6.866 -1.041 5.731 -1.062 4.562 C-1 1 -1 1 0 0 Z M-10 12 C-10.266 14.094 -10.266 14.094 -10.25 16.5 C-10.255 17.294 -10.26 18.088 -10.266 18.906 C-10 21 -10 21 -8 23 C-5.5 23.25 -5.5 23.25 -3 23 C-1 21 -1 21 -0.734 18.906 C-0.74 18.112 -0.745 17.318 -0.75 16.5 C-0.745 15.706 -0.74 14.912 -0.734 14.094 C-1 12 -1 12 -3 10 C-7.545 9.545 -7.545 9.545 -10 12 Z " fill="#000000" transform="translate(89,87)"/><path d="M0 0 C0.66 0 1.32 0 2 0 C3.257 2.906 4 4.796 4 8 C3.67 8.33 3.34 8.66 3 9 C2.874 10.767 2.824 12.541 2.812 14.312 C2.798 15.278 2.784 16.244 2.77 17.238 C3.001 20.015 3.579 21.635 5 24 C0.125 23.125 0.125 23.125 -1 22 C-1.21 19.879 -1.369 17.752 -1.5 15.625 C-1.716 12.149 -1.898 9.307 -3 6 C-1.562 2.812 -1.562 2.812 0 0 Z " fill="#000000" transform="translate(48,89)"/><path d="M0 0 C0.66 0.33 1.32 0.66 2 1 C2.061 1.759 2.121 2.519 2.184 3.301 C2.267 4.295 2.351 5.289 2.438 6.312 C2.478 6.806 2.478 6.806 2.684 9.301 C3 12 3 12 4 15 C5.666 15.043 7.334 15.041 9 15 C10.878 13.122 10.391 9.961 10.562 7.438 C10.646 6.24 10.73 5.042 10.816 3.809 C10.877 2.882 10.938 1.955 11 1 C11.99 1 12.98 1 14 1 C14 6.61 14 12.22 14 18 C3.375 19.25 3.375 19.25 0 17 C-1.131 13.606 -1.133 10.947 -1.125 7.375 C-1.126 6.791 -1.126 6.791 -1.133 3.836 C-1 1 -1 1 0 0 Z " fill="#000000" transform="translate(57,94)"/><path d="M0 0 C0.99 0.33 1.98 0.66 3 1 C3 6.61 3 12.22 3 18 C1.68 18 0.36 18 -1 18 C-1.027 15.187 -1.047 12.375 -1.062 9.562 C-1.071 8.76 -1.079 7.958 -1.088 7.131 C-1.097 5.087 -1.052 3.043 -1 1 C-0.67 0.67 -0.34 0.34 0 0 Z " fill="#000000" transform="translate(97,94)"/><path d="M0 0 C2.893 1.543 4.558 2.701 5.637 5.871 C6.265 9.447 6.217 11.501 4.75 14.875 C2.427 17.696 0.775 18.899 -2.875 19.375 C-6.881 18.894 -8.343 18.037 -11 15 C-12.364 10.993 -12.441 8.015 -10.75 4.125 C-7.483 0.158 -4.99 -0.599 0 0 Z M-8 5 C-8.266 7.094 -8.266 7.094 -8.25 9.5 C-8.255 10.294 -8.26 11.088 -8.266 11.906 C-8 14 -8 14 -6 16 C-3 16.25 -3 16.25 0 16 C2 14 2 14 2.266 11.906 C2.26 11.112 2.255 10.318 2.25 9.5 C2.255 8.706 2.26 7.912 2.266 7.094 C2 5 2 5 0 3 C-5.538 2.538 -5.538 2.538 -8 5 Z " fill="#000000" transform="translate(115,94)"/><path d="M0 0 C1.134 0.021 2.269 0.041 3.438 0.062 C3.108 1.053 2.777 2.042 2.438 3.062 C1.117 3.393 -0.203 3.722 -1.562 4.062 C0.087 4.062 1.738 4.062 3.438 4.062 C5.438 7.062 5.438 7.062 5.125 9.688 C4.438 12.062 4.438 12.062 3.438 13.062 C-0.062 13.188 -0.062 13.188 -3.562 13.062 C-4.562 12.062 -4.562 12.062 -4.695 9.594 C-4.693 8.593 -4.69 7.593 -4.688 6.562 C-4.69 5.562 -4.693 4.562 -4.695 3.531 C-4.485 -0.385 -4.078 0.072 0 0 Z M-1.562 7.062 C-1.562 8.382 -1.562 9.702 -1.562 11.062 C0.087 10.732 1.738 10.403 3.438 10.062 C3.108 9.072 2.777 8.083 2.438 7.062 C1.117 7.062 -0.203 7.062 -1.562 7.062 Z " fill="#000000" transform="translate(25.5625,183.9375)"/><path d="M0 0 C2.899 2.395 3.502 4.312 4 8 C4.66 8 5.32 8 6 8 C6.144 7.433 6.144 7.433 6.875 4.562 C7.246 3.387 7.618 2.211 8 1 C8.66 0.67 9.32 0.34 10 0 C9.424 4.755 7.449 7.97 5 12 C2.435 10.717 2.335 9.772 1.375 7.125 C1.115 6.426 0.854 5.728 0.586 5.008 C0 3 0 3 0 0 Z " fill="#000000" transform="translate(117,185)"/></svg>
